<?xml version="1.0" encoding="utf-8"?>
<!-- Svg Vector Icons : http://www.onlinewebfonts.com/icon -->
<!DOCTYPE svg PUBLIC "-//W3C//DTD SVG 1.1//EN" "http://www.w3.org/Graphics/SVG/1.1/DTD/svg11.dtd">
<svg version="1.1" xmlns="http://www.w3.org/2000/svg" xmlns:xlink="http://www.w3.org/1999/xlink" x="0px" y="0px" viewBox="0 0 1000 1000" enable-background="new 0 0 1000 1000" xml:space="preserve" fill="white">
<metadata> Svg Vector Icons : http://www.onlinewebfonts.com/icon </metadata>
<g><path d="M123.1,361.6c0-42.4,7.4-82.4,22.1-119.9c14.7-37.5,35.1-70.2,61-98.1c25.9-27.9,55.8-52,89.5-72.4c33.7-20.4,70-35.7,108.9-45.9C443.5,15.1,483.1,10,523.5,10c62,0,119.7,13.1,173.1,39.2c53.4,26.1,96.8,64.1,130.2,114c33.4,49.9,50.1,106.2,50.1,169c0,37.7-3.7,74.6-11.2,110.7s-19.2,70.9-35.4,104.2c-16.1,33.4-35.8,62.7-58.9,88c-23.1,25.3-51.6,45.6-85.4,60.7c-33.8,15.1-70.9,22.7-111.3,22.7c-26.7,0-53.2-6.3-79.5-18.8c-26.3-12.6-45.2-29.8-56.5-51.9c-3.9,15.3-9.4,37.4-16.5,66.3c-7.1,28.8-11.7,47.5-13.9,55.9c-2.2,8.4-6.2,22.4-12.1,41.8s-11,33.4-15.3,41.8c-4.3,8.4-10.6,20.7-18.8,36.8c-8.2,16.1-17.3,31.3-27.1,45.6c-9.8,14.3-22,31.3-36.5,51l-8.2,2.9l-5.3-5.9c-5.9-61.7-8.8-98.6-8.8-110.7c0-36.1,4.2-76.7,12.7-121.6c8.4-44.9,21.5-101.4,39.2-169.3c17.7-67.9,27.9-107.8,30.6-119.6c-12.6-25.5-18.8-58.7-18.8-99.5c0-32.6,10.2-63.2,30.6-91.9c20.4-28.7,46.3-43,77.7-43c24,0,42.6,7.9,55.9,23.8c13.3,15.9,20,36,20.1,60.4c0,25.9-8.6,63.4-25.9,112.5c-17.3,49-25.9,85.8-25.9,110.1c0,24.7,8.8,45.2,26.5,61.5c17.7,16.3,39.1,24.4,64.2,24.4c21.6,0,41.6-4.9,60.1-14.7c18.4-9.8,33.8-23.1,46.2-40c12.4-16.9,23.4-35.5,33-55.9c9.6-20.4,17.1-42.1,22.4-65.1c5.3-23,9.2-44.7,11.8-65.4c2.6-20.6,3.8-40.1,3.8-58.6c0-67.9-21.5-120.8-64.4-158.7s-99-56.8-168.1-56.8c-78.5,0-144.1,25.4-196.7,76.3c-52.6,50.9-78.9,115.3-78.9,193.4c0,17.3,2.5,34,7.4,50.1c4.9,16.1,10.2,28.8,15.9,38.3c5.7,9.4,11,18.4,15.9,26.8c4.9,8.4,7.4,14.4,7.4,17.9c0,11-2.9,25.3-8.8,43c-5.9,17.6-13.1,26.5-21.8,26.5c-0.8,0-4.1-0.6-10-1.7c-20-5.9-37.8-16.9-53.3-33c-15.5-16.1-27.5-34.7-36-55.6c-8.4-21-14.8-42.2-19.1-63.6c-4.3-21.5-6.5-42.4-6.5-62.7L123.1,361.6z"/></g>
</svg>